<svg xmlns="http://www.w3.org/2000/svg" viewBox="0 0 18.9 18"><defs><style>.f8339c76-e106-4954-a6f2-d2c84493b8a0{fill:#fff;}</style></defs><g id="a0cf139f-21dd-450a-b2b3-da1b78d60465" data-name="Layer 2"><g id="bacec301-53c7-4870-932e-4a534cd8ffb1" data-name="Laag 1"><rect class="f8339c76-e106-4954-a6f2-d2c84493b8a0" x="0.48" y="4.2" width="15.21" height="0.97"/><rect class="f8339c76-e106-4954-a6f2-d2c84493b8a0" x="7.06" y="10.31" width="2.05" height="2.05"/><rect class="f8339c76-e106-4954-a6f2-d2c84493b8a0" x="2.75" y="10.31" width="2.05" height="2.05"/><rect class="f8339c76-e106-4954-a6f2-d2c84493b8a0" x="11.38" y="6.33" width="2.05" height="2.05"/><rect class="f8339c76-e106-4954-a6f2-d2c84493b8a0" x="7.06" y="6.33" width="2.05" height="2.05"/><rect class="f8339c76-e106-4954-a6f2-d2c84493b8a0" x="2.75" y="6.33" width="2.05" height="2.05"/><rect class="f8339c76-e106-4954-a6f2-d2c84493b8a0" x="4.74" y="0.85" width="6.69" height="0.97"/><path class="f8339c76-e106-4954-a6f2-d2c84493b8a0" d="M3.78,0a.49.49,0,0,0-.49.48V2.19a.49.49,0,0,0,1,0V.48A.49.49,0,0,0,3.78,0Z"/><path class="f8339c76-e106-4954-a6f2-d2c84493b8a0" d="M12.4,0a.49.49,0,0,0-.48.48V2.19a.49.49,0,0,0,1,0V.48A.49.49,0,0,0,12.4,0Z"/><path class="f8339c76-e106-4954-a6f2-d2c84493b8a0" d="M9.28,13.61H1.54A.57.57,0,0,1,1,13V2.39a.57.57,0,0,1,.57-.57H2.81v-1H1.54A1.53,1.53,0,0,0,.94,1a1.63,1.63,0,0,0-.49.33,1.63,1.63,0,0,0-.33.49,1.53,1.53,0,0,0-.12.6V13a1.49,1.49,0,0,0,.45,1.08,1.46,1.46,0,0,0,.49.33,1.53,1.53,0,0,0,.6.12H9.38V14.5A4.41,4.41,0,0,1,9.28,13.61Z"/><path class="f8339c76-e106-4954-a6f2-d2c84493b8a0" d="M16.18,8.68V2.39a1.53,1.53,0,0,0-.12-.6A1.54,1.54,0,0,0,15.24,1a1.53,1.53,0,0,0-.6-.12H13.37v1h1.27a.57.57,0,0,1,.57.57v6l.2,0A5.16,5.16,0,0,1,16.18,8.68Z"/><path class="f8339c76-e106-4954-a6f2-d2c84493b8a0" d="M17.59,10.36a4.53,4.53,0,0,0-1.41-1l-.13-.05h0l-.05,0h0a4.53,4.53,0,0,0-1.53-.27A4.47,4.47,0,0,0,10,13.61c0,.12,0,.24,0,.36v.08h0a4.48,4.48,0,1,0,7.61-3.7ZM14.43,17a3.51,3.51,0,0,1,0-7,3.51,3.51,0,1,1,0,7Z"/><path class="f8339c76-e106-4954-a6f2-d2c84493b8a0" d="M16.11,13.36H14.57V11.82a.49.49,0,0,0-.49-.49h0a.49.49,0,0,0-.48.49v2a.48.48,0,0,0,.48.48h2a.48.48,0,0,0,.48-.48h0A.48.48,0,0,0,16.11,13.36Z"/></g></g></svg>