<?xml version="1.0" encoding="UTF-8"?>
<svg id="Layer_2" data-name="Layer 2" xmlns="http://www.w3.org/2000/svg" viewBox="0 0 50.24 46.14">
  <defs>
    <style>
      .cls-1 {
        stroke-width: 2px;
      }

      .cls-1, .cls-2 {
        fill: none;
        stroke: #fff;
        stroke-linecap: round;
        stroke-linejoin: round;
      }

      .cls-2 {
        stroke-width: 3px;
      }
    </style>
  </defs>
  <g id="Layer_6" data-name="Layer 6">
    <g>
      <path class="cls-2" d="M16.14,36.45c.26-.83,.72-1.59,1.34-2.21L40.08,11.66c1.92-2.23,5.17-2.42,7.07-.81,2.09,1.78,2.22,5.49-.22,7.65-7.55,7.49-15.1,14.99-22.65,22.48-.56,.55-1.23,.98-1.96,1.24l-6.4,2.32c-1.06,.39-2.11-.61-1.77-1.69l2-6.41Z"/>
      <line class="cls-1" x1="40.08" y1="11.66" x2="46.93" y2="18.51"/>
      <line class="cls-1" x1="23.43" y1="41.83" x2="20.59" y2="38.98"/>
      <path class="cls-2" d="M9.2,42.81c-3.7-1.5-6.12-5.07-6.09-8.95,.04-4.27,3.04-8.08,7.32-9.19,.5-.09,6.33-1.27,8.52-6.57,1.19-2.88,.71-5.54,.45-6.62-.54-1.52-1.76-4.26-4.48-6.53C9.43,.34,2.52,1.61,1.5,1.81"/>
    </g>
  </g>
</svg>