<svg xmlns="http://www.w3.org/2000/svg" viewBox="0 0 150.06 86.64"><defs><style>.cls-1{fill:#fff;}.cls-2{fill:#8f8e8e;}</style></defs><title>footerlogo</title><g id="Laag_2" data-name="Laag 2"><g id="Laag_1-2" data-name="Laag 1"><path class="cls-1" d="M14.23,57.44H10.09v-.93a4.4,4.4,0,0,0-.68-2.46,2.47,2.47,0,0,0-2.25-1,2.66,2.66,0,0,0-1.4.33,2.29,2.29,0,0,0-.86.83,3.52,3.52,0,0,0-.43,1.18,7.93,7.93,0,0,0-.12,1.4c0,.57,0,1,.06,1.45a2.4,2.4,0,0,0,.31,1,2.2,2.2,0,0,0,.71.75,6.5,6.5,0,0,0,1.28.66l3.17,1.26a7.73,7.73,0,0,1,2.24,1.24,5,5,0,0,1,1.32,1.66,7.17,7.17,0,0,1,.63,2.2,21.75,21.75,0,0,1,.16,2.83,15.07,15.07,0,0,1-.36,3.39,7.36,7.36,0,0,1-1.2,2.69,5.94,5.94,0,0,1-2.22,1.77,7.94,7.94,0,0,1-3.37.65,7.44,7.44,0,0,1-2.81-.53A6.87,6.87,0,0,1,2,76.33,6.9,6.9,0,0,1,.55,74.16,6.69,6.69,0,0,1,0,71.43V69.89H4.15v1.3a3.36,3.36,0,0,0,.67,2,2.62,2.62,0,0,0,2.26.92,3.52,3.52,0,0,0,1.64-.31,2.12,2.12,0,0,0,.9-.85A3.52,3.52,0,0,0,10,71.64a16.47,16.47,0,0,0,.09-1.79A15.74,15.74,0,0,0,10,68a3,3,0,0,0-.34-1.18,2.15,2.15,0,0,0-.73-.74,9.8,9.8,0,0,0-1.25-.61l-3-1.22a6.58,6.58,0,0,1-3.6-2.9A10,10,0,0,1,.2,56.79,10.5,10.5,0,0,1,.65,53.7,7.2,7.2,0,0,1,2,51.18a6.19,6.19,0,0,1,2.22-1.69,7.29,7.29,0,0,1,3.13-.63,6.9,6.9,0,0,1,5,2.08A6.76,6.76,0,0,1,13.75,53a6.17,6.17,0,0,1,.48,2.38Z"/><path class="cls-1" d="M17.08,51.18h4.15v6.26h2.56V60.7H21.23V72.12a3.45,3.45,0,0,0,.14,1.14,1.15,1.15,0,0,0,.45.61,1.6,1.6,0,0,0,.79.25c.33,0,.72,0,1.18,0v3.9H22.08a5.58,5.58,0,0,1-2.38-.45,4.23,4.23,0,0,1-1.52-1.13,4.67,4.67,0,0,1-.84-1.57,6,6,0,0,1-.26-1.69V60.7H15V57.44h2.08Z"/><path class="cls-1" d="M25,64.36A15.1,15.1,0,0,1,25.17,62a5.56,5.56,0,0,1,.61-1.87A5.5,5.5,0,0,1,27.9,58a6.39,6.39,0,0,1,3.29-.81,6.43,6.43,0,0,1,3.3.81,5.49,5.49,0,0,1,2.72,4,15.1,15.1,0,0,1,.16,2.32v6.79a15.19,15.19,0,0,1-.16,2.32,5.71,5.71,0,0,1-.61,1.87,5.58,5.58,0,0,1-2.11,2.15,6.33,6.33,0,0,1-3.3.81,6.3,6.3,0,0,1-3.29-.81,5.54,5.54,0,0,1-2.12-2.15,5.71,5.71,0,0,1-.61-1.87A15.19,15.19,0,0,1,25,71.15Zm4.15,7.44a2.5,2.5,0,0,0,.55,1.77,1.93,1.93,0,0,0,1.48.59,2,2,0,0,0,1.49-.59,2.55,2.55,0,0,0,.55-1.77V63.71a2.53,2.53,0,0,0-.55-1.77,1.93,1.93,0,0,0-1.49-.59,1.89,1.89,0,0,0-1.48.59,2.49,2.49,0,0,0-.55,1.77Z"/><path class="cls-1" d="M40.18,49.11h4.15V72.25a2.29,2.29,0,0,0,.42,1.6,2.66,2.66,0,0,0,1.61.55v3.91a13.52,13.52,0,0,1-2.58-.23,4.45,4.45,0,0,1-2-.85,3.93,3.93,0,0,1-1.22-1.77,8.36,8.36,0,0,1-.43-2.93Z"/><polygon class="cls-1" points="47.99 49.11 52.13 49.11 52.13 66.43 52.22 66.43 57.22 57.44 61.37 57.44 56.45 65.82 62.38 78.06 57.87 78.06 54.13 69.16 52.13 72.29 52.13 78.06 47.99 78.06 47.99 49.11"/><path class="cls-1" d="M71.37,55.94A7.47,7.47,0,0,1,72,52.85a6.36,6.36,0,0,1,1.61-2.22,7,7,0,0,1,2.23-1.32,7.2,7.2,0,0,1,5,0,7,7,0,0,1,2.23,1.32,6.36,6.36,0,0,1,1.61,2.22,7.31,7.31,0,0,1,.61,3.09V71.23a7.31,7.31,0,0,1-.61,3.11,6.47,6.47,0,0,1-1.61,2.2,7,7,0,0,1-2.23,1.32,7.2,7.2,0,0,1-5,0,7,7,0,0,1-2.23-1.32A6.47,6.47,0,0,1,72,74.34a7.47,7.47,0,0,1-.61-3.11Zm4.15,15.29a2.79,2.79,0,0,0,.83,2.22,3.1,3.1,0,0,0,4,0,2.76,2.76,0,0,0,.83-2.22V55.94a2.76,2.76,0,0,0-.83-2.22,3.1,3.1,0,0,0-4,0,2.79,2.79,0,0,0-.83,2.22Z"/><path class="cls-1" d="M88.7,57.44h4.15v2.2a11.93,11.93,0,0,1,2.48-1.79,6.35,6.35,0,0,1,3-.65v4.39a3.45,3.45,0,0,0-1.27-.24,4.89,4.89,0,0,0-1.4.22,3.88,3.88,0,0,0-1.38.75,4.13,4.13,0,0,0-1,1.39,4.9,4.9,0,0,0-.4,2.11V78.06H88.7Z"/><path class="cls-1" d="M104.15,80.46a2.35,2.35,0,0,0,.59,1.38,2,2,0,0,0,1.61.65,1.67,1.67,0,0,0,1.46-.63,2.68,2.68,0,0,0,.45-1.6V76.19h-.08a5.12,5.12,0,0,1-1.65,1.57,4.46,4.46,0,0,1-2.22.55,3.78,3.78,0,0,1-3.62-2,5.41,5.41,0,0,1-.52-1.7,17.77,17.77,0,0,1-.17-2.73V64.07a28.9,28.9,0,0,1,.13-3.29,4.06,4.06,0,0,1,.52-1.71A4.49,4.49,0,0,1,102,57.73a4.34,4.34,0,0,1,2.33-.53,4.7,4.7,0,0,1,1.33.16,3.89,3.89,0,0,1,1,.45,4.37,4.37,0,0,1,.82.67l.77.83V57.44h4.15V80.58a7,7,0,0,1-.35,2.14,5.31,5.31,0,0,1-1.12,2,5.72,5.72,0,0,1-2,1.42,6.55,6.55,0,0,1-2.81.55,6.91,6.91,0,0,1-2-.3,5.29,5.29,0,0,1-1.89-1,6,6,0,0,1-1.5-1.89,8.42,8.42,0,0,1-.84-3Zm0-8.74a3.29,3.29,0,0,0,.43,1.71,1.7,1.7,0,0,0,1.6.73,2,2,0,0,0,1.49-.63,2.28,2.28,0,0,0,.59-1.61v-8a2.86,2.86,0,0,0-.57-1.85,1.82,1.82,0,0,0-1.51-.71,1.67,1.67,0,0,0-1.54.77,3.72,3.72,0,0,0-.49,2Z"/><path class="cls-1" d="M119.61,69.32v2.8a2,2,0,0,0,.54,1.51,2.07,2.07,0,0,0,1.49.53,1.62,1.62,0,0,0,1.56-.69,3.59,3.59,0,0,0,.47-1.39h4.15a6.77,6.77,0,0,1-.43,2.44,5.33,5.33,0,0,1-1.24,2,5.85,5.85,0,0,1-2,1.34,6.53,6.53,0,0,1-2.56.49,6.31,6.31,0,0,1-3.3-.82,5.46,5.46,0,0,1-2.72-4,15.19,15.19,0,0,1-.16-2.32V64.36a15.1,15.1,0,0,1,.16-2.32,5.49,5.49,0,0,1,2.72-4,6.41,6.41,0,0,1,3.3-.81,6.49,6.49,0,0,1,2.58.49,5.44,5.44,0,0,1,2,1.36,6,6,0,0,1,1.22,2.05,7.25,7.25,0,0,1,.43,2.52v5.7Zm0-3.26h4.06V63.71a2.49,2.49,0,0,0-.55-1.77,1.89,1.89,0,0,0-1.48-.59,1.92,1.92,0,0,0-1.49.59,2.53,2.53,0,0,0-.54,1.77Z"/><path class="cls-1" d="M130.63,49.11h4.14V72.25a2.29,2.29,0,0,0,.43,1.6,2.66,2.66,0,0,0,1.61.55v3.91a13.52,13.52,0,0,1-2.58-.23,4.44,4.44,0,0,1-2-.85,4,4,0,0,1-1.22-1.77,8.62,8.62,0,0,1-.42-2.93Z"/><path class="cls-1" d="M146,63.22a2.07,2.07,0,0,0-.67-1.59,2.22,2.22,0,0,0-1.45-.53,1.84,1.84,0,0,0-1.5.63,2.17,2.17,0,0,0-.53,1.45,2.41,2.41,0,0,0,.28,1.12,2.69,2.69,0,0,0,1.47,1l2.44,1a5.89,5.89,0,0,1,3.19,2.44,6.74,6.74,0,0,1,.87,3.37,6.21,6.21,0,0,1-.46,2.42,6.61,6.61,0,0,1-1.28,2,6,6,0,0,1-2,1.34,6.27,6.27,0,0,1-2.48.48,6.6,6.6,0,0,1-2.31-.4,5.65,5.65,0,0,1-1.94-1.18,6.1,6.1,0,0,1-1.36-1.93,7,7,0,0,1-.57-2.71h3.91a4,4,0,0,0,.58,1.59,1.82,1.82,0,0,0,1.65.73,2.41,2.41,0,0,0,1.61-.59,2,2,0,0,0,.71-1.64,2.42,2.42,0,0,0-.45-1.47,3.53,3.53,0,0,0-1.62-1.06l-2-.73A6.84,6.84,0,0,1,139,66.74a5.63,5.63,0,0,1-1.11-3.52,6,6,0,0,1,.48-2.42,5.93,5.93,0,0,1,1.32-1.91,6.07,6.07,0,0,1,1.94-1.24A6.16,6.16,0,0,1,144,57.2a5.77,5.77,0,0,1,2.33.47,5.62,5.62,0,0,1,1.85,1.26,5.54,5.54,0,0,1,1.22,1.91,6.3,6.3,0,0,1,.45,2.38Z"/><polygon class="cls-1" points="98.17 22.29 93.27 19.88 93.27 34.68 98.17 34.68 98.17 22.29"/><polygon class="cls-1" points="91.43 18.98 86.54 16.57 86.54 34.68 91.43 34.68 91.43 18.98"/><polygon class="cls-1" points="84.7 15.66 79.8 13.25 79.8 34.68 84.7 34.68 84.7 15.66"/><polygon class="cls-1" points="77.97 12.35 73.07 9.94 73.07 34.68 77.97 34.68 77.97 12.35"/><polygon class="cls-1" points="71.23 9.04 66.34 6.63 66.34 34.68 71.23 34.68 71.23 9.04"/><polygon class="cls-1" points="64.5 5.72 59.6 3.31 59.6 34.68 64.5 34.68 64.5 5.72"/><polygon class="cls-1" points="57.77 2.41 52.87 0 52.87 34.68 57.77 34.68 57.77 2.41"/><polygon class="cls-2" points="76.98 10.42 77.97 10.91 77.97 9.94 76.98 10.42"/><polygon class="cls-2" points="84.7 6.63 79.8 9.04 79.8 11.81 84.7 14.22 84.7 6.63"/><polygon class="cls-2" points="91.43 3.31 86.54 5.72 86.54 15.12 91.43 17.53 91.43 3.31"/><polygon class="cls-2" points="98.17 0 93.27 2.41 93.27 18.44 98.17 20.85 98.17 0"/></g></g></svg>