<svg xmlns="http://www.w3.org/2000/svg" viewBox="0 0 10.41 15"><defs><style>.cls-1{fill:#fff;}</style></defs><title>locatie</title><g id="Laag_2" data-name="Laag 2"><g id="Laag_1-2" data-name="Laag 1"><path class="cls-1" d="M10.41,5.2A5.21,5.21,0,0,0,5.21,0,5.14,5.14,0,0,0,1.53,1.53,5.12,5.12,0,0,0,0,5.2c-.07,3,2.54,6.5,4.1,8.6.29.39.54.72.74,1a.44.44,0,0,0,.37.19.44.44,0,0,0,.36-.19c.2-.29.45-.62.74-1,1.56-2.1,4.17-5.61,4.1-8.6M5.82,13.43l-.62.84c-.17-.25-.38-.53-.61-.84-1.51-2-4-5.45-4-8.22h0a4.6,4.6,0,0,1,9.19,0h0c.06,2.78-2.47,6.19-4,8.22"/><path class="cls-1" d="M5.2,2a3.1,3.1,0,1,0,3.11,3.1A3.1,3.1,0,0,0,5.2,2m0,5.59A2.49,2.49,0,1,1,7.7,5.09,2.5,2.5,0,0,1,5.2,7.58"/></g></g></svg>