<svg xmlns="http://www.w3.org/2000/svg" viewBox="0 0 99.77 99.77"><defs><style>.phone-1{fill:#9e731f;}</style></defs><g id="Layer_2" data-name="Layer 2"><g id="Laag_1" data-name="Laag 1"><path class="phone-1" d="M99.49,44.37A83.61,83.61,0,0,0,55.14.24a3.19,3.19,0,0,0-4.2,1.84,3.38,3.38,0,0,0,1.78,4.34A77.06,77.06,0,0,1,93.6,47.1a3.22,3.22,0,0,0,3,2,3.09,3.09,0,0,0,1.31-.3A3.37,3.37,0,0,0,99.49,44.37Z"/><path class="phone-1" d="M51,24.18A46.68,46.68,0,0,1,75.81,48.8a3.08,3.08,0,0,0,4.13,1.62,3.25,3.25,0,0,0,1.56-4.25A53,53,0,0,0,53.36,18.23,3.08,3.08,0,0,0,49.3,20,3.24,3.24,0,0,0,51,24.18Z"/><path class="phone-1" d="M82.53,63A7.6,7.6,0,0,0,71,63c-2.68,2.66-5.37,5.33-8,8a1.87,1.87,0,0,1-1.29.69,1.82,1.82,0,0,1-.93-.29c-1.74-.94-3.59-1.71-5.26-2.75a83.46,83.46,0,0,1-20.11-18.3,47.47,47.47,0,0,1-7.2-11.54,1.66,1.66,0,0,1,.4-2.13c2.69-2.59,5.31-5.26,8-7.93,3.69-3.7,3.69-8,0-11.76-2.1-2.13-4.2-4.21-6.3-6.33s-4.32-4.36-6.51-6.51A8.26,8.26,0,0,0,18,1.64a8.18,8.18,0,0,0-5.75,2.61c-2.72,2.66-5.31,5.4-8.07,8A13.07,13.07,0,0,0,.08,21.1C-.35,26.73,1,32,3,37.21A98.06,98.06,0,0,0,20.34,66.14,107.62,107.62,0,0,0,55.94,94c6.24,3,12.7,5.35,19.72,5.73.43,0,.85,0,1.27,0A14.1,14.1,0,0,0,88.07,95c2.3-2.57,4.9-4.92,7.34-7.38,3.61-3.66,3.64-8.09,0-11.71Q89,69.46,82.53,63Zm8.23,20c-.8.81-1.63,1.61-2.45,2.41-1.7,1.65-3.45,3.36-5.12,5.23a7.62,7.62,0,0,1-6.26,2.57l-.91,0c-5.25-.29-10.56-1.86-17.22-5.09A101.54,101.54,0,0,1,25.35,61.93,90.67,90.67,0,0,1,9.1,34.9c-2-5.36-2.79-9.47-2.5-13.29A6.58,6.58,0,0,1,8.7,17c1.7-1.62,3.34-3.28,5-4.94,1-1.06,2.09-2.11,3.16-3.17A2.12,2.12,0,0,1,18,8.18a2.16,2.16,0,0,1,1.17.72c1.44,1.41,2.86,2.84,4.28,4.27l2.15,2.16,3.21,3.22,3.1,3.12c1.21,1.21,1.14,1.42,0,2.55l-1.1,1.11c-2.24,2.26-4.47,4.52-6.83,6.8a8.14,8.14,0,0,0-1.82,9.28,53.45,53.45,0,0,0,8.17,13.14A89.33,89.33,0,0,0,52.08,74.27c1.29.8,2.59,1.44,3.74,2,.62.3,1.24.61,1.76.89a8.39,8.39,0,0,0,4.15,1.13,8.17,8.17,0,0,0,6-2.67c2.58-2.65,5.21-5.25,8-8a2.1,2.1,0,0,1,1.13-.73,2.25,2.25,0,0,1,1.14.72q6.47,6.44,12.89,12.88C91.81,81.53,91.91,81.86,90.76,83Z"/></g></g></svg>