<svg xmlns="http://www.w3.org/2000/svg" viewBox="0 0 16.71 13"><title>sort-1</title><g id="Laag_2" data-name="Laag 2"><g id="Laag_1-2" data-name="Laag 1"><path d="M16.58,10.35a.47.47,0,0,0-.66,0l-1.06,1.06V.46a.47.47,0,0,0-.93,0v11l-1.07-1.06a.46.46,0,0,0-.65,0,.47.47,0,0,0,0,.66l1.85,1.85a.49.49,0,0,0,.33.14.47.47,0,0,0,.33-.14L16.58,11a.47.47,0,0,0,0-.66"/><path d="M10.68,1.86H.46A.46.46,0,0,0,0,2.32a.47.47,0,0,0,.46.47H10.68a.46.46,0,0,0,.46-.47.45.45,0,0,0-.46-.46"/><path d="M10.68,4.64H.46a.47.47,0,0,0,0,.93H10.68a.47.47,0,0,0,0-.93"/><path d="M10.68,7.43H.46a.47.47,0,0,0,0,.93H10.68a.47.47,0,0,0,0-.93"/></g></g></svg>