<svg xmlns="http://www.w3.org/2000/svg" viewBox="0 0 20.42 20.3"><title>sort-2</title><g id="Laag_2" data-name="Laag 2"><g id="Laag_1-2" data-name="Laag 1"><path d="M.64,10.79H4.11a2.75,2.75,0,1,0,0-1.28H.64a.64.64,0,0,0-.64.64.64.64,0,0,0,.64.64"/><path d="M.64,3.39H9.55a2.75,2.75,0,1,0,0-1.28H.64a.64.64,0,0,0,0,1.28"/><path d="M13.41,14.8a2.75,2.75,0,0,0-2.67,2.11H.64a.64.64,0,0,0-.64.64.64.64,0,0,0,.64.64h10.1a2.75,2.75,0,1,0,2.67-3.39"/><path d="M19.78,16.91H17.36a.64.64,0,0,0-.64.64.64.64,0,0,0,.64.64h2.42a.64.64,0,0,0,0-1.28"/><path d="M19.78,9.51H10.72a.64.64,0,0,0-.64.64.64.64,0,0,0,.64.64h9.06a.64.64,0,0,0,0-1.28"/><path d="M16.16,3.39h3.62a.64.64,0,1,0,0-1.28H16.16a.64.64,0,0,0,0,1.28"/></g></g></svg>